<svg width="106" height="32" viewBox="0 0 106 32" fill="none" xmlns="http://www.w3.org/2000/svg"
  xmlns:xlink="http://www.w3.org/1999/xlink">
  <rect width="106" height="32" rx="5" fill="#F2F2F2" />
  <path
    d="M46.1445 11.8906V19H45.2021V11.8906H46.1445ZM49.123 15.0889V15.8604H45.9395V15.0889H49.123ZM49.6064 11.8906V12.6621H45.9395V11.8906H49.6064ZM53.542 18.0967V15.377C53.542 15.1686 53.4997 14.988 53.415 14.835C53.3337 14.6787 53.21 14.5583 53.0439 14.4736C52.8779 14.389 52.6729 14.3467 52.4287 14.3467C52.2008 14.3467 52.0007 14.3857 51.8281 14.4639C51.6589 14.542 51.5254 14.6445 51.4277 14.7715C51.3333 14.8984 51.2861 15.0352 51.2861 15.1816H50.3828C50.3828 14.9928 50.4316 14.8057 50.5293 14.6201C50.627 14.4346 50.7669 14.2669 50.9492 14.1172C51.1348 13.9642 51.3561 13.8438 51.6133 13.7559C51.8737 13.6647 52.1634 13.6191 52.4824 13.6191C52.8665 13.6191 53.2051 13.6842 53.498 13.8145C53.7943 13.9447 54.0254 14.1416 54.1914 14.4053C54.3607 14.6657 54.4453 14.9928 54.4453 15.3867V17.8477C54.4453 18.0234 54.46 18.2106 54.4893 18.4092C54.5218 18.6077 54.569 18.7786 54.6309 18.9219V19H53.6885C53.6429 18.8958 53.6071 18.7575 53.5811 18.585C53.555 18.4092 53.542 18.2464 53.542 18.0967ZM53.6982 15.7969L53.708 16.4316H52.7949C52.5378 16.4316 52.3083 16.4528 52.1064 16.4951C51.9046 16.5342 51.7354 16.5944 51.5986 16.6758C51.4619 16.7572 51.3577 16.8597 51.2861 16.9834C51.2145 17.1038 51.1787 17.2454 51.1787 17.4082C51.1787 17.5742 51.2161 17.7256 51.291 17.8623C51.3659 17.999 51.4782 18.1081 51.6279 18.1895C51.7809 18.2676 51.9681 18.3066 52.1895 18.3066C52.4661 18.3066 52.7103 18.248 52.9219 18.1309C53.1335 18.0137 53.3011 17.8704 53.4248 17.7012C53.5518 17.5319 53.6201 17.3675 53.6299 17.208L54.0156 17.6426C53.9928 17.7793 53.931 17.9307 53.8301 18.0967C53.7292 18.2627 53.5941 18.4222 53.4248 18.5752C53.2588 18.7249 53.0602 18.8503 52.8291 18.9512C52.6012 19.0488 52.3441 19.0977 52.0576 19.0977C51.6995 19.0977 51.3854 19.0277 51.1152 18.8877C50.8483 18.7477 50.64 18.5605 50.4902 18.3262C50.3438 18.0885 50.2705 17.8232 50.2705 17.5303C50.2705 17.2471 50.3258 16.998 50.4365 16.7832C50.5472 16.5651 50.7067 16.3844 50.915 16.2412C51.1234 16.0947 51.374 15.984 51.667 15.9092C51.96 15.8343 52.2871 15.7969 52.6484 15.7969H53.6982ZM58.9424 17.5986C58.9424 17.4684 58.9131 17.348 58.8545 17.2373C58.7992 17.1234 58.6836 17.0208 58.5078 16.9297C58.3353 16.8353 58.0749 16.7539 57.7266 16.6855C57.4336 16.6237 57.1683 16.5505 56.9307 16.4658C56.6963 16.3812 56.4961 16.2786 56.3301 16.1582C56.1673 16.0378 56.042 15.8962 55.9541 15.7334C55.8662 15.5706 55.8223 15.3802 55.8223 15.1621C55.8223 14.9538 55.8678 14.7568 55.959 14.5713C56.0534 14.3857 56.1852 14.2214 56.3545 14.0781C56.527 13.9349 56.7337 13.8226 56.9746 13.7412C57.2155 13.6598 57.484 13.6191 57.7803 13.6191C58.2035 13.6191 58.5648 13.694 58.8643 13.8438C59.1637 13.9935 59.3932 14.1937 59.5527 14.4443C59.7122 14.6917 59.792 14.9668 59.792 15.2695H58.8887C58.8887 15.123 58.8447 14.9814 58.7568 14.8447C58.6722 14.7048 58.5469 14.5892 58.3809 14.498C58.2181 14.4069 58.0179 14.3613 57.7803 14.3613C57.5296 14.3613 57.3262 14.4004 57.1699 14.4785C57.0169 14.5534 56.9046 14.6494 56.833 14.7666C56.7646 14.8838 56.7305 15.0075 56.7305 15.1377C56.7305 15.2354 56.7467 15.3232 56.7793 15.4014C56.8151 15.4762 56.877 15.5462 56.9648 15.6113C57.0527 15.6732 57.1764 15.7318 57.3359 15.7871C57.4954 15.8424 57.6989 15.8978 57.9463 15.9531C58.3792 16.0508 58.7357 16.168 59.0156 16.3047C59.2956 16.4414 59.5039 16.609 59.6406 16.8076C59.7773 17.0062 59.8457 17.2471 59.8457 17.5303C59.8457 17.7614 59.7969 17.973 59.6992 18.165C59.6048 18.3571 59.4665 18.5231 59.2842 18.6631C59.1051 18.7998 58.8903 18.9072 58.6396 18.9854C58.3923 19.0602 58.1139 19.0977 57.8047 19.0977C57.3392 19.0977 56.9453 19.0146 56.623 18.8486C56.3008 18.6826 56.0566 18.4678 55.8906 18.2041C55.7246 17.9404 55.6416 17.6621 55.6416 17.3691H56.5498C56.5628 17.6165 56.6344 17.8135 56.7646 17.96C56.8949 18.1032 57.0544 18.2057 57.2432 18.2676C57.432 18.3262 57.6191 18.3555 57.8047 18.3555C58.0521 18.3555 58.2588 18.3229 58.4248 18.2578C58.5941 18.1927 58.7227 18.1032 58.8105 17.9893C58.8984 17.8753 58.9424 17.7451 58.9424 17.5986ZM63.2441 13.7168V14.4102H60.3877V13.7168H63.2441ZM61.3545 12.4326H62.2578V17.6914C62.2578 17.8704 62.2855 18.0055 62.3408 18.0967C62.3962 18.1878 62.4678 18.248 62.5557 18.2773C62.6436 18.3066 62.738 18.3213 62.8389 18.3213C62.9137 18.3213 62.9919 18.3148 63.0732 18.3018C63.1579 18.2855 63.2214 18.2725 63.2637 18.2627L63.2686 19C63.1969 19.0228 63.1025 19.0439 62.9854 19.0635C62.8714 19.0863 62.7331 19.0977 62.5703 19.0977C62.349 19.0977 62.1455 19.0537 61.96 18.9658C61.7744 18.8779 61.6263 18.7314 61.5156 18.5264C61.4082 18.318 61.3545 18.0381 61.3545 17.6865V12.4326ZM68.1318 19H67.2285V13.1602C67.2285 12.7793 67.2969 12.4587 67.4336 12.1982C67.5736 11.9346 67.7738 11.736 68.0342 11.6025C68.2946 11.4658 68.6038 11.3975 68.9619 11.3975C69.0661 11.3975 69.1702 11.404 69.2744 11.417C69.3818 11.43 69.486 11.4495 69.5869 11.4756L69.5381 12.2129C69.4697 12.1966 69.3916 12.1852 69.3037 12.1787C69.2191 12.1722 69.1344 12.1689 69.0498 12.1689C68.8577 12.1689 68.6917 12.208 68.5518 12.2861C68.415 12.361 68.3109 12.4717 68.2393 12.6182C68.1676 12.7646 68.1318 12.9453 68.1318 13.1602V19ZM69.2549 13.7168V14.4102H66.3936V13.7168H69.2549ZM70.0215 16.417V16.3047C70.0215 15.9238 70.0768 15.5706 70.1875 15.2451C70.2982 14.9163 70.4577 14.6315 70.666 14.3906C70.8743 14.1465 71.1266 13.9577 71.4229 13.8242C71.7191 13.6875 72.0511 13.6191 72.4189 13.6191C72.79 13.6191 73.1237 13.6875 73.4199 13.8242C73.7194 13.9577 73.9733 14.1465 74.1816 14.3906C74.3932 14.6315 74.5544 14.9163 74.665 15.2451C74.7757 15.5706 74.8311 15.9238 74.8311 16.3047V16.417C74.8311 16.7979 74.7757 17.151 74.665 17.4766C74.5544 17.8021 74.3932 18.0869 74.1816 18.3311C73.9733 18.5719 73.721 18.7607 73.4248 18.8975C73.1318 19.0309 72.7998 19.0977 72.4287 19.0977C72.0576 19.0977 71.724 19.0309 71.4277 18.8975C71.1315 18.7607 70.8776 18.5719 70.666 18.3311C70.4577 18.0869 70.2982 17.8021 70.1875 17.4766C70.0768 17.151 70.0215 16.7979 70.0215 16.417ZM70.9248 16.3047V16.417C70.9248 16.6807 70.9557 16.9297 71.0176 17.1641C71.0794 17.3952 71.1722 17.6003 71.2959 17.7793C71.4229 17.9583 71.5807 18.0999 71.7695 18.2041C71.9583 18.305 72.1781 18.3555 72.4287 18.3555C72.6761 18.3555 72.8926 18.305 73.0781 18.2041C73.2669 18.0999 73.4232 17.9583 73.5469 17.7793C73.6706 17.6003 73.7633 17.3952 73.8252 17.1641C73.8903 16.9297 73.9229 16.6807 73.9229 16.417V16.3047C73.9229 16.0443 73.8903 15.7985 73.8252 15.5674C73.7633 15.333 73.6689 15.1263 73.542 14.9473C73.4183 14.765 73.262 14.6217 73.0732 14.5176C72.8877 14.4134 72.6696 14.3613 72.4189 14.3613C72.1715 14.3613 71.9535 14.4134 71.7646 14.5176C71.5791 14.6217 71.4229 14.765 71.2959 14.9473C71.1722 15.1263 71.0794 15.333 71.0176 15.5674C70.9557 15.7985 70.9248 16.0443 70.9248 16.3047ZM75.7246 16.417V16.3047C75.7246 15.9238 75.7799 15.5706 75.8906 15.2451C76.0013 14.9163 76.1608 14.6315 76.3691 14.3906C76.5775 14.1465 76.8298 13.9577 77.126 13.8242C77.4222 13.6875 77.7542 13.6191 78.1221 13.6191C78.4932 13.6191 78.8268 13.6875 79.123 13.8242C79.4225 13.9577 79.6764 14.1465 79.8848 14.3906C80.0964 14.6315 80.2575 14.9163 80.3682 15.2451C80.4788 15.5706 80.5342 15.9238 80.5342 16.3047V16.417C80.5342 16.7979 80.4788 17.151 80.3682 17.4766C80.2575 17.8021 80.0964 18.0869 79.8848 18.3311C79.6764 18.5719 79.4242 18.7607 79.1279 18.8975C78.835 19.0309 78.5029 19.0977 78.1318 19.0977C77.7607 19.0977 77.4271 19.0309 77.1309 18.8975C76.8346 18.7607 76.5807 18.5719 76.3691 18.3311C76.1608 18.0869 76.0013 17.8021 75.8906 17.4766C75.7799 17.151 75.7246 16.7979 75.7246 16.417ZM76.6279 16.3047V16.417C76.6279 16.6807 76.6589 16.9297 76.7207 17.1641C76.7826 17.3952 76.8753 17.6003 76.999 17.7793C77.126 17.9583 77.2839 18.0999 77.4727 18.2041C77.6615 18.305 77.8812 18.3555 78.1318 18.3555C78.3792 18.3555 78.5957 18.305 78.7812 18.2041C78.9701 18.0999 79.1263 17.9583 79.25 17.7793C79.3737 17.6003 79.4665 17.3952 79.5283 17.1641C79.5934 16.9297 79.626 16.6807 79.626 16.417V16.3047C79.626 16.0443 79.5934 15.7985 79.5283 15.5674C79.4665 15.333 79.3721 15.1263 79.2451 14.9473C79.1214 14.765 78.9652 14.6217 78.7764 14.5176C78.5908 14.4134 78.3727 14.3613 78.1221 14.3613C77.8747 14.3613 77.6566 14.4134 77.4678 14.5176C77.2822 14.6217 77.126 14.765 76.999 14.9473C76.8753 15.1263 76.7826 15.333 76.7207 15.5674C76.6589 15.7985 76.6279 16.0443 76.6279 16.3047ZM84.9971 17.9746V11.5H85.9053V19H85.0752L84.9971 17.9746ZM81.4424 16.417V16.3145C81.4424 15.9108 81.4912 15.5446 81.5889 15.2158C81.6898 14.8838 81.8314 14.599 82.0137 14.3613C82.1992 14.1237 82.4189 13.9414 82.6729 13.8145C82.93 13.6842 83.2165 13.6191 83.5322 13.6191C83.8643 13.6191 84.154 13.6777 84.4014 13.7949C84.652 13.9089 84.8636 14.0765 85.0361 14.2979C85.2119 14.516 85.3503 14.7796 85.4512 15.0889C85.5521 15.3981 85.6221 15.748 85.6611 16.1387V16.5879C85.6253 16.9753 85.5553 17.3236 85.4512 17.6328C85.3503 17.9421 85.2119 18.2057 85.0361 18.4238C84.8636 18.6419 84.652 18.8096 84.4014 18.9268C84.1507 19.0407 83.8577 19.0977 83.5225 19.0977C83.2132 19.0977 82.93 19.0309 82.6729 18.8975C82.4189 18.764 82.1992 18.5768 82.0137 18.3359C81.8314 18.0951 81.6898 17.8118 81.5889 17.4863C81.4912 17.1576 81.4424 16.8011 81.4424 16.417ZM82.3506 16.3145V16.417C82.3506 16.6807 82.3766 16.9281 82.4287 17.1592C82.484 17.3903 82.5687 17.5938 82.6826 17.7695C82.7965 17.9453 82.9414 18.0837 83.1172 18.1846C83.293 18.2822 83.5029 18.3311 83.7471 18.3311C84.0465 18.3311 84.2923 18.2676 84.4844 18.1406C84.6797 18.0137 84.8359 17.846 84.9531 17.6377C85.0703 17.4294 85.1615 17.2031 85.2266 16.959V15.7822C85.1875 15.6032 85.1305 15.4307 85.0557 15.2646C84.984 15.0954 84.8896 14.9456 84.7725 14.8154C84.6585 14.682 84.5169 14.5762 84.3477 14.498C84.1816 14.4199 83.9847 14.3809 83.7568 14.3809C83.5094 14.3809 83.2962 14.4329 83.1172 14.5371C82.9414 14.638 82.7965 14.778 82.6826 14.957C82.5687 15.1328 82.484 15.3379 82.4287 15.5723C82.3766 15.8034 82.3506 16.0508 82.3506 16.3145Z"
    fill="#6C6C6C" />
  <rect x="10" y="8" width="16" height="16" fill="url(#pattern0)" />
  <defs>
    <pattern id="pattern0" patternContentUnits="objectBoundingBox" width="1" height="1">
      <use xlink:href="#image0_417_764" transform="scale(0.00833333)" />
    </pattern>
    <image id="image0_417_764" width="120" height="120">
</svg>