<svg width="106" height="32" viewBox="0 0 106 32" fill="none" xmlns="http://www.w3.org/2000/svg"
  xmlns:xlink="http://www.w3.org/1999/xlink">
  <rect width="106" height="32" rx="5" fill="#F2F2F2" />
  <path
    d="M52.8965 17.2119H50.9971V16.4453H52.8965C53.2643 16.4453 53.5622 16.3867 53.79 16.2695C54.0179 16.1523 54.1839 15.9896 54.2881 15.7812C54.3955 15.5729 54.4492 15.3353 54.4492 15.0684C54.4492 14.8242 54.3955 14.5947 54.2881 14.3799C54.1839 14.165 54.0179 13.9925 53.79 13.8623C53.5622 13.7288 53.2643 13.6621 52.8965 13.6621H51.2168V20H50.2744V12.8906H52.8965C53.4336 12.8906 53.8877 12.9834 54.2588 13.1689C54.6299 13.3545 54.9115 13.6117 55.1035 13.9404C55.2956 14.266 55.3916 14.6387 55.3916 15.0586C55.3916 15.5143 55.2956 15.9033 55.1035 16.2256C54.9115 16.5479 54.6299 16.7936 54.2588 16.9629C53.8877 17.1289 53.4336 17.2119 52.8965 17.2119ZM57.4277 14.7168V20H56.5195V14.7168H57.4277ZM56.4512 13.3154C56.4512 13.1689 56.4951 13.0452 56.583 12.9443C56.6742 12.8434 56.8076 12.793 56.9834 12.793C57.1559 12.793 57.2878 12.8434 57.3789 12.9443C57.4733 13.0452 57.5205 13.1689 57.5205 13.3154C57.5205 13.4554 57.4733 13.5758 57.3789 13.6768C57.2878 13.7744 57.1559 13.8232 56.9834 13.8232C56.8076 13.8232 56.6742 13.7744 56.583 13.6768C56.4951 13.5758 56.4512 13.4554 56.4512 13.3154ZM62.8135 19.2578V20H58.9707V19.2578H62.8135ZM62.6719 15.3564L59.1758 20H58.624V19.3359L62.0957 14.7168H62.6719V15.3564ZM62.2715 14.7168V15.4639H58.6631V14.7168H62.2715ZM67.7744 19.2578V20H63.9316V19.2578H67.7744ZM67.6328 15.3564L64.1367 20H63.585V19.3359L67.0566 14.7168H67.6328V15.3564ZM67.2324 14.7168V15.4639H63.624V14.7168H67.2324ZM71.915 19.0967V16.377C71.915 16.1686 71.8727 15.988 71.7881 15.835C71.7067 15.6787 71.583 15.5583 71.417 15.4736C71.251 15.389 71.0459 15.3467 70.8018 15.3467C70.5739 15.3467 70.3737 15.3857 70.2012 15.4639C70.0319 15.542 69.8984 15.6445 69.8008 15.7715C69.7064 15.8984 69.6592 16.0352 69.6592 16.1816H68.7559C68.7559 15.9928 68.8047 15.8057 68.9023 15.6201C69 15.4346 69.14 15.2669 69.3223 15.1172C69.5078 14.9642 69.7292 14.8438 69.9863 14.7559C70.2467 14.6647 70.5365 14.6191 70.8555 14.6191C71.2396 14.6191 71.5781 14.6842 71.8711 14.8145C72.1673 14.9447 72.3984 15.1416 72.5645 15.4053C72.7337 15.6657 72.8184 15.9928 72.8184 16.3867V18.8477C72.8184 19.0234 72.833 19.2106 72.8623 19.4092C72.8949 19.6077 72.9421 19.7786 73.0039 19.9219V20H72.0615C72.016 19.8958 71.9801 19.7575 71.9541 19.585C71.9281 19.4092 71.915 19.2464 71.915 19.0967ZM72.0713 16.7969L72.0811 17.4316H71.168C70.9108 17.4316 70.6813 17.4528 70.4795 17.4951C70.2777 17.5342 70.1084 17.5944 69.9717 17.6758C69.835 17.7572 69.7308 17.8597 69.6592 17.9834C69.5876 18.1038 69.5518 18.2454 69.5518 18.4082C69.5518 18.5742 69.5892 18.7256 69.6641 18.8623C69.7389 18.999 69.8512 19.1081 70.001 19.1895C70.154 19.2676 70.3411 19.3066 70.5625 19.3066C70.8392 19.3066 71.0833 19.248 71.2949 19.1309C71.5065 19.0137 71.6742 18.8704 71.7979 18.7012C71.9248 18.5319 71.9932 18.3675 72.0029 18.208L72.3887 18.6426C72.3659 18.7793 72.304 18.9307 72.2031 19.0967C72.1022 19.2627 71.9671 19.4222 71.7979 19.5752C71.6318 19.7249 71.4333 19.8503 71.2021 19.9512C70.9743 20.0488 70.7171 20.0977 70.4307 20.0977C70.0726 20.0977 69.7585 20.0277 69.4883 19.8877C69.2214 19.7477 69.013 19.5605 68.8633 19.3262C68.7168 19.0885 68.6436 18.8232 68.6436 18.5303C68.6436 18.2471 68.6989 17.998 68.8096 17.7832C68.9202 17.5651 69.0798 17.3844 69.2881 17.2412C69.4964 17.0947 69.7471 16.984 70.04 16.9092C70.333 16.8343 70.6602 16.7969 71.0215 16.7969H72.0713Z"
    fill="#6C6C6C" />
  <path d="M10 24.19H27V7.19H10V24.19Z" fill="url(#pattern0)" />
  <defs>
    <pattern id="pattern0" patternContentUnits="objectBoundingBox" width="1" height="1">
      <use xlink:href="#image0_417_765" transform="scale(0.00625)" />
    </pattern>
    <image id="image0_417_765" width="160" height="160">
</svg>